<svg xmlns="http://www.w3.org/2000/svg" viewBox="0 0 340 340">
  <path d="M 0,340 L 0,0 L 200,0 C 340,0 340,280 200,280 L 60,280 L 60,340 Z" fill="#b8d4c8"/>
  <path d="M 0,340 L 0,0 L 200,0 C 340,0 340,280 200,280 L 60,280 L 60,340 Z" fill="#6b9e8a" transform="scale(0.618)"/>
  <path d="M 0,340 L 0,0 L 200,0 C 340,0 340,280 200,280 L 60,280 L 60,340 Z" fill="#1a5f4a" transform="scale(0.382)"/>
  <path d="M 0,340 L 0,0 L 200,0 C 340,0 340,280 200,280 L 60,280 L 60,340 Z" fill="#134436" transform="scale(0.236)"/>
  <path d="M 0,340 L 0,0 L 200,0 C 340,0 340,280 200,280 L 60,280 L 60,340 Z" fill="#0d2e24" transform="scale(0.146)"/>
</svg>
